<svg width="24" height="28" viewBox="0 0 24 28" fill="none" xmlns="http://www.w3.org/2000/svg">
<path d="M10.6667 17.3333V28H0C0 25.171 1.12381 22.4579 3.12419 20.4575C5.12458 18.4571 7.83769 17.3333 10.6667 17.3333ZM10.6667 16C6.24667 16 2.66667 12.42 2.66667 8C2.66667 3.58 6.24667 0 10.6667 0C15.0867 0 18.6667 3.58 18.6667 8C18.6667 12.42 15.0867 16 10.6667 16ZM22.6667 21.3333H24V28H13.3333V21.3333H14.6667V20C14.6667 18.9391 15.0881 17.9217 15.8382 17.1716C16.5884 16.4214 17.6058 16 18.6667 16C19.7275 16 20.7449 16.4214 21.4951 17.1716C22.2452 17.9217 22.6667 18.9391 22.6667 20V21.3333ZM20 21.3333V20C20 19.6464 19.8595 19.3072 19.6095 19.0572C19.3594 18.8071 19.0203 18.6667 18.6667 18.6667C18.313 18.6667 17.9739 18.8071 17.7239 19.0572C17.4738 19.3072 17.3333 19.6464 17.3333 20V21.3333H20Z" fill="#35972F"/>
</svg>
