<svg width="128" height="173" viewBox="0 0 128 173" fill="none" xmlns="http://www.w3.org/2000/svg">
<path d="M0 50C0 47.2386 2.23858 45 5 45H33C35.7614 45 38 47.2386 38 50V78C38 80.7614 35.7614 83 33 83H5C2.23858 83 0 80.7614 0 78V50Z" fill="#35972F"/>
<path d="M45 50C45 47.2386 47.2386 45 50 45H78C80.7614 45 83 47.2386 83 50V78C83 80.7614 80.7614 83 78 83H50C47.2386 83 45 80.7614 45 78V50Z" fill="#35972F"/>
<path d="M45 5C45 2.23858 47.2386 0 50 0H78C80.7614 0 83 2.23858 83 5V33C83 35.7614 80.7614 38 78 38H50C47.2386 38 45 35.7614 45 33V5Z" fill="#35972F"/>
<path d="M90 5C90 2.23858 92.2386 0 95 0H123C125.761 0 128 2.23858 128 5V33C128 35.7614 125.761 38 123 38H95C92.2386 38 90 35.7614 90 33V5Z" fill="#35972F"/>
<path d="M0 95C0 92.2386 2.23858 90 5 90H33C35.7614 90 38 92.2386 38 95V123C38 125.761 35.7614 128 33 128H5C2.23858 128 0 125.761 0 123V95Z" fill="#35972F"/>
<path d="M45 95C45 92.2386 47.2386 90 50 90H78C80.7614 90 83 92.2386 83 95V123C83 125.761 80.7614 128 78 128H50C47.2386 128 45 125.761 45 123V95Z" fill="#35972F"/>
<path d="M90 95C90 92.2386 92.2386 90 95 90H123C125.761 90 128 92.2386 128 95V123C128 125.761 125.761 128 123 128H95C92.2386 128 90 125.761 90 123V95Z" fill="#35972F"/>
<path d="M0 140C0 137.239 2.23858 135 5 135H33C35.7614 135 38 137.239 38 140V168C38 170.761 35.7614 173 33 173H5C2.23858 173 0 170.761 0 168V140Z" fill="#35972F"/>
<path d="M45 140C45 137.239 47.2386 135 50 135H78C80.7614 135 83 137.239 83 140V168C83 170.761 80.7614 173 78 173H50C47.2386 173 45 170.761 45 168V140Z" fill="#35972F"/>
<path d="M38 19C38 29.4934 29.4934 38 19 38C8.50659 38 0 29.4934 0 19C0 8.50659 8.50659 0 19 0C29.4934 0 38 8.50659 38 19Z" fill="#C80B0F"/>
</svg>
