<svg width="27" height="26" viewBox="0 0 27 26" fill="none" xmlns="http://www.w3.org/2000/svg">
<path d="M26.3125 4.05005L14.3125 0.050047C14.1089 -0.0126133 13.8911 -0.0126133 13.6875 0.050047L1.70003 4.05005H1.67503L1.55003 4.11255H1.53753L1.41253 4.18755C1.41253 4.20005 1.40003 4.20005 1.38753 4.21255L1.28753 4.30005L1.20003 4.40005C1.20003 4.41255 1.18753 4.41255 1.18753 4.42505L1.11253 4.53755C1.11253 4.55005 1.11253 4.55005 1.10003 4.56255L1.05003 4.67505L1.01253 4.81255V4.85005C1.0002 4.89903 0.995974 4.9497 1.00003 5.00005V15C1.00003 15.2653 1.10538 15.5196 1.29292 15.7072C1.48046 15.8947 1.73481 16 2.00003 16C2.26524 16 2.5196 15.8947 2.70713 15.7072C2.89467 15.5196 3.00003 15.2653 3.00003 15V6.38755L7.20003 7.78755C6.41098 9.05054 5.99499 10.5108 6.00003 12C6.00049 13.3544 6.34479 14.6865 7.00068 15.8715C7.65657 17.0565 8.60257 18.0555 9.75003 18.775C7.36553 19.6771 5.32985 21.3144 3.93753 23.45C3.79561 23.6745 3.74753 23.9456 3.80364 24.2052C3.85976 24.4647 4.01557 24.6918 4.23753 24.8375C4.34645 24.9097 4.4686 24.9596 4.59692 24.9842C4.72524 25.0088 4.85717 25.0077 4.98507 24.9809C5.11296 24.9542 5.23427 24.9023 5.34198 24.8284C5.44969 24.7544 5.54165 24.6598 5.61253 24.55C6.52019 23.1519 7.76295 22.0029 9.2278 21.2074C10.6926 20.4119 12.3331 19.9952 14 19.9952C15.6669 19.9952 17.3074 20.4119 18.7723 21.2074C20.2371 22.0029 21.4799 23.1519 22.3875 24.55C22.4788 24.6887 22.6032 24.8024 22.7494 24.8809C22.8956 24.9595 23.059 25.0004 23.225 25C23.4166 25.0021 23.6042 24.9454 23.7625 24.8375C23.9845 24.6918 24.1403 24.4647 24.1964 24.2052C24.2525 23.9456 24.2044 23.6745 24.0625 23.45C22.6702 21.3144 20.6345 19.6771 18.25 18.775C19.3975 18.0555 20.3435 17.0565 20.9994 15.8715C21.6553 14.6865 21.9996 13.3544 22 12C22.0051 10.5108 21.5891 9.05054 20.8 7.78755L26.3125 5.95005C26.5126 5.88429 26.6868 5.75704 26.8103 5.58646C26.9338 5.41587 27.0003 5.21065 27.0003 5.00005C27.0003 4.78945 26.9338 4.58423 26.8103 4.41364C26.6868 4.24305 26.5126 4.11581 26.3125 4.05005ZM14 18C12.4087 18 10.8826 17.3679 9.75739 16.2427C8.63217 15.1175 8.00003 13.5913 8.00003 12C8.00244 10.7197 8.4093 9.47288 9.16253 8.43755L13.6875 9.95005C13.8905 10.0168 14.1095 10.0168 14.3125 9.95005L18.8375 8.43755C19.5908 9.47288 19.9976 10.7197 20 12C20 13.5913 19.3679 15.1175 18.2427 16.2427C17.1174 17.3679 15.5913 18 14 18Z" fill="#35972F"/>
</svg>
