<svg width="26" height="22" viewBox="0 0 26 22" fill="none" xmlns="http://www.w3.org/2000/svg">
<path d="M24 0H2C1.46957 0 0.960859 0.210714 0.585786 0.585786C0.210714 0.960859 0 1.46957 0 2V20C0 20.5304 0.210714 21.0391 0.585786 21.4142C0.960859 21.7893 1.46957 22 2 22H3.675C3.86436 22.0005 4.04987 21.9466 4.20944 21.8447C4.36901 21.7427 4.4959 21.597 4.575 21.425C5.06429 20.401 5.83339 19.5364 6.7934 18.9312C7.75341 18.3259 8.86512 18.0047 10 18.0047C11.1349 18.0047 12.2466 18.3259 13.2066 18.9312C14.1666 19.5364 14.9357 20.401 15.425 21.425C15.5041 21.597 15.631 21.7427 15.7906 21.8447C15.9501 21.9466 16.1356 22.0005 16.325 22H24C24.5304 22 25.0391 21.7893 25.4142 21.4142C25.7893 21.0391 26 20.5304 26 20V2C26 1.46957 25.7893 0.960859 25.4142 0.585786C25.0391 0.210714 24.5304 0 24 0ZM10 16C9.20887 16 8.43552 15.7654 7.77772 15.3259C7.11992 14.8864 6.60723 14.2616 6.30448 13.5307C6.00173 12.7998 5.92252 11.9956 6.07686 11.2196C6.2312 10.4437 6.61216 9.73098 7.17157 9.17157C7.73098 8.61216 8.44371 8.2312 9.21964 8.07686C9.99556 7.92252 10.7998 8.00173 11.5307 8.30448C12.2616 8.60723 12.8864 9.11992 13.3259 9.77772C13.7654 10.4355 14 11.2089 14 12C13.9967 13.0599 13.5742 14.0754 12.8248 14.8248C12.0754 15.5742 11.0599 15.9967 10 16ZM24 20H16.925C16.4917 19.2486 15.9386 18.573 15.2875 18H21C21.2652 18 21.5196 17.8946 21.7071 17.7071C21.8946 17.5196 22 17.2652 22 17V5C22 4.73478 21.8946 4.48043 21.7071 4.29289C21.5196 4.10536 21.2652 4 21 4H5C4.73478 4 4.48043 4.10536 4.29289 4.29289C4.10536 4.48043 4 4.73478 4 5V17C4.00127 17.2207 4.07552 17.4348 4.21118 17.6089C4.34684 17.783 4.53629 17.9073 4.75 17.9625C4.08311 18.5446 3.51714 19.2331 3.075 20H2V2H24V20Z" fill="#35972F"/>
</svg>
